<?xml version="1.0" standalone="no"?><!DOCTYPE svg PUBLIC "-//W3C//DTD SVG 1.1//EN" "http://www.w3.org/Graphics/SVG/1.1/DTD/svg11.dtd"><svg width="71px" height="71px" viewBox="0 0 71 71" version="1.1" xmlns="http://www.w3.org/2000/svg" xmlns:xlink="http://www.w3.org/1999/xlink" xml:space="preserve" style="fill-rule:evenodd;clip-rule:evenodd;stroke-linejoin:round;stroke-miterlimit:1.41421;"><path id="Instagram" d="M60.072,67.46l-49.277,0c-4.08,0 -7.389,-3.309 -7.389,-7.393l0,-49.272c0,-4.081 3.309,-7.389 7.389,-7.389l49.277,0c4.081,0 7.389,3.308 7.389,7.389l0,49.272c0,4.084 -3.308,7.393 -7.389,7.393M35.433,23.114c-6.804,0 -12.318,5.514 -12.318,12.318c0,6.803 5.514,12.319 12.318,12.319c6.804,0 12.32,-5.516 12.32,-12.319c0,-6.804 -5.516,-12.318 -12.32,-12.318M60.072,13.258c0,-1.359 -1.104,-2.463 -2.466,-2.463l-7.39,0c-1.361,0 -2.463,1.104 -2.463,2.463l0,7.393c0,1.36 1.102,2.463 2.463,2.463l7.39,0c1.362,0 2.466,-1.103 2.466,-2.463l0,-7.393ZM60.072,30.503l-5.577,0c0.407,1.577 0.647,3.225 0.647,4.929c0,10.887 -8.824,19.71 -19.709,19.71c-10.884,0 -19.708,-8.823 -19.708,-19.71c0,-1.704 0.241,-3.352 0.647,-4.929l-5.577,0l0,27.102c0,1.359 1.104,2.462 2.466,2.462l44.345,0c1.362,0 2.466,-1.103 2.466,-2.462l0,-27.102Z" style="fill:#fff;"/></svg>
