<?xml version="1.0" standalone="no"?><!DOCTYPE svg PUBLIC "-//W3C//DTD SVG 1.1//EN" "http://www.w3.org/Graphics/SVG/1.1/DTD/svg11.dtd"><svg width="71px" height="71px" viewBox="0 0 71 71" version="1.1" xmlns="http://www.w3.org/2000/svg" xmlns:xlink="http://www.w3.org/1999/xlink" xml:space="preserve" style="fill-rule:evenodd;clip-rule:evenodd;stroke-linejoin:round;stroke-miterlimit:1.41421;"><path id="Facebook" d="M63.925,3.406l-56.984,0c-1.953,0 -3.535,1.582 -3.535,3.535l0,56.984c0,1.952 1.582,3.535 3.535,3.535l30.678,0l0,-24.805l-8.347,0l0,-9.667l8.347,0l0,-7.129c0,-8.274 5.053,-12.779 12.434,-12.779c3.535,0 6.574,0.263 7.459,0.381l0,8.646l-5.119,0.003c-4.013,0 -4.791,1.907 -4.791,4.706l0,6.172l9.573,0l-1.246,9.667l-8.327,0l0,24.805l16.323,0c1.953,0 3.535,-1.583 3.535,-3.535l0,-56.984c0,-1.953 -1.582,-3.535 -3.535,-3.535" style="fill:#fff;fill-rule:nonzero;"/></svg>
