<?xml version="1.0" standalone="no"?><!DOCTYPE svg PUBLIC "-//W3C//DTD SVG 1.1//EN" "http://www.w3.org/Graphics/SVG/1.1/DTD/svg11.dtd"><svg width="71px" height="71px" viewBox="0 0 71 71" version="1.1" xmlns="http://www.w3.org/2000/svg" xmlns:xlink="http://www.w3.org/1999/xlink" xml:space="preserve" style="fill-rule:evenodd;clip-rule:evenodd;stroke-linejoin:round;stroke-miterlimit:1.41421;"><path id="LinkedIn" d="M57.988,57.987l-9.494,0l0,-14.865c0,-3.545 -0.065,-8.105 -4.938,-8.105c-4.943,0 -5.701,3.861 -5.701,7.848l0,15.122l-9.493,0l0,-30.568l9.112,0l0,4.177l0.128,0c1.268,-2.403 4.367,-4.937 8.989,-4.937c9.621,0 11.397,6.332 11.397,14.561l0,16.767ZM17.655,23.241c-3.045,0 -5.51,-2.469 -5.51,-5.51c0,-3.038 2.465,-5.507 5.51,-5.507c3.037,0 5.506,2.469 5.506,5.507c0,3.041 -2.469,5.51 -5.506,5.51ZM22.404,57.987l-9.502,0l0,-30.568l9.502,0l0,30.568ZM62.719,3.406l-54.586,0c-2.608,0 -4.727,2.067 -4.727,4.615l0,54.816c0,2.551 2.119,4.621 4.727,4.621l54.586,0c2.613,0 4.741,-2.07 4.741,-4.621l0,-54.816c0,-2.548 -2.128,-4.615 -4.741,-4.615Z" style="fill:#fff;fill-rule:nonzero;"/></svg>
