<?xml version="1.0" encoding="UTF-8" standalone="no"?><!DOCTYPE svg PUBLIC "-//W3C//DTD SVG 1.1//EN" "http://www.w3.org/Graphics/SVG/1.1/DTD/svg11.dtd"><svg width="100%" height="100%" viewBox="0 0 810 180" version="1.1" xmlns="http://www.w3.org/2000/svg" xmlns:xlink="http://www.w3.org/1999/xlink" xml:space="preserve" xmlns:serif="http://www.serif.com/" style="fill-rule:evenodd;clip-rule:evenodd;stroke-linejoin:round;stroke-miterlimit:1.41421;"><g id="Black"><path d="M147.921,129.54c0,0.5 -0.175,0.978 -0.482,1.356c-0.02,-0.124 -0.047,-0.246 -0.075,-0.368l-0.014,-0.068c-0.016,-0.073 -0.032,-0.145 -0.053,-0.224c-0.006,-0.025 -0.012,-0.05 -0.02,-0.078c-0.019,-0.065 -0.043,-0.127 -0.068,-0.19l-0.051,-0.139c-0.03,-0.087 -0.061,-0.173 -0.096,-0.255c-0.04,-0.094 -0.086,-0.184 -0.133,-0.274l-0.064,-0.125c-0.036,-0.074 -0.073,-0.147 -0.114,-0.217c-0.069,-0.117 -0.147,-0.228 -0.226,-0.339l-0.058,-0.086c-0.032,-0.049 -0.065,-0.097 -0.099,-0.141c-0.124,-0.16 -0.264,-0.32 -0.423,-0.482l-0.029,-0.032c-0.349,-0.349 -0.737,-0.648 -1.153,-0.889l-22.423,-12.95l0,-48.152l22.377,-12.923c0.13,-0.074 0.276,-0.135 0.462,-0.19l0.031,-0.01c0.023,-0.007 0.043,-0.014 0.07,-0.02c0.141,-0.035 0.288,-0.054 0.439,-0.058c0.024,0 0.049,-0.002 0.085,-0.005c0.082,0.001 0.178,0.015 0.262,0.027l0.036,0.005c0.034,0.005 0.066,0.009 0.097,0.015c0.087,0.019 0.177,0.046 0.278,0.082c0.043,0.015 0.085,0.032 0.126,0.05c0.093,0.039 0.2,0.087 0.315,0.157c0.081,0.051 0.166,0.12 0.234,0.177c0.021,0.019 0.042,0.036 0.063,0.053c0.017,0.013 0.032,0.025 0.058,0.05c0.09,0.086 0.165,0.168 0.23,0.253c0.018,0.023 0.033,0.052 0.05,0.081c0.017,0.03 0.035,0.06 0.052,0.086l0.035,0.057c0.028,0.042 0.056,0.084 0.079,0.132c0.017,0.036 0.029,0.077 0.042,0.117l0.059,0.169c0.016,0.043 0.032,0.085 0.044,0.131c0.037,0.169 0.056,0.329 0.056,0.491l0,74.726Zm-3.78,2.354l-0.019,0.171c-0.006,0.06 -0.01,0.119 -0.022,0.171c-0.025,0.103 -0.066,0.208 -0.121,0.338l-0.031,0.081c-0.01,0.023 -0.017,0.046 -0.025,0.063c-0.04,0.073 -0.1,0.154 -0.162,0.24l-0.02,0.027c-0.021,0.028 -0.039,0.056 -0.058,0.085l-0.018,0.028c-0.013,0.015 -0.025,0.031 -0.028,0.038c-0.118,0.133 -0.246,0.247 -0.381,0.339l-0.153,0.104l-38.933,22.493c-0.029,-0.22 -0.072,-0.437 -0.127,-0.651c-0.368,-1.418 -1.277,-2.612 -2.562,-3.362l-20.778,-11.998l39.984,-23.091l22.369,12.901l0.048,0.03c0.151,0.088 0.287,0.19 0.415,0.311l0.031,0.032c0.122,0.122 0.227,0.257 0.315,0.404l0.03,0.063c0.082,0.148 0.144,0.3 0.186,0.447c0.006,0.025 0.008,0.051 0.011,0.078c0.005,0.04 0.011,0.079 0.021,0.138c0.022,0.118 0.042,0.23 0.044,0.326c0.001,0.054 -0.007,0.119 -0.016,0.194m-43.558,25.932c-0.11,0.171 -0.21,0.313 -0.353,0.467c-0.024,0.028 -0.053,0.053 -0.083,0.079l-21.721,12.542c-0.208,0.114 -0.381,0.184 -0.573,0.232c-0.361,0.101 -0.693,0.102 -1.105,-0.012c-0.036,-0.009 -0.072,-0.023 -0.109,-0.036l-0.066,-0.024c-0.034,-0.012 -0.065,-0.026 -0.078,-0.031c-0.089,-0.044 -0.179,-0.09 -0.24,-0.123l-64.791,-37.417c-0.098,-0.065 -0.174,-0.124 -0.254,-0.196c-0.037,-0.03 -0.074,-0.061 -0.092,-0.078c-0.385,-0.398 -0.598,-0.924 -0.598,-1.48c0,-0.775 0.4,-1.469 1.071,-1.856l22.39,-12.948l65.764,37.996c1.221,0.713 1.263,2.147 0.838,2.885m-93.407,-26.954c-0.295,-0.375 -0.464,-0.843 -0.464,-1.332l0,-74.726c0,-0.601 0.226,-1.12 0.683,-1.552c0.112,-0.112 0.253,-0.213 0.441,-0.316c0.036,-0.019 0.073,-0.038 0.118,-0.059c0.085,-0.041 0.183,-0.078 0.3,-0.113l0.061,-0.019c0.034,-0.011 0.068,-0.022 0.099,-0.029c0.125,-0.027 0.253,-0.043 0.383,-0.047c0.025,-0.001 0.05,-0.003 0.077,-0.006c0.15,0.001 0.306,0.023 0.476,0.066c0.013,0.004 0.027,0.009 0.04,0.014l0.069,0.022c0.186,0.058 0.323,0.114 0.439,0.181l22.394,12.931l0,48.151l-22.646,13.056c-1.342,0.855 -2.232,2.232 -2.47,3.778m0.578,-82.322l26.21,-15.124l39.998,23.095l-0.011,0.006l25.796,14.895c0.602,0.352 0.989,0.95 1.062,1.64c0.002,0.02 0.005,0.039 0.009,0.062c0.009,0.117 0.005,0.248 -0.013,0.41l-0.005,0.039c-0.004,0.032 -0.007,0.064 -0.013,0.1c-0.02,0.112 -0.051,0.226 -0.094,0.346c-0.02,0.054 -0.043,0.107 -0.067,0.16c-0.049,0.108 -0.1,0.201 -0.153,0.282c-0.04,0.058 -0.086,0.113 -0.133,0.169c-0.067,0.082 -0.133,0.16 -0.203,0.223c-0.114,0.103 -0.238,0.209 -0.371,0.286l-21.376,12.273c-0.636,0.365 -1.506,0.365 -2.14,-0.003l-42.196,-24.366l-22.4,-12.939c-0.193,-0.123 -0.385,-0.215 -0.703,-0.357c-0.042,-0.018 -0.086,-0.031 -0.138,-0.044c-0.265,-0.102 -0.549,-0.184 -0.867,-0.251l-0.061,-0.012c-0.06,-0.014 -0.121,-0.026 -0.181,-0.036c-0.38,-0.061 -0.693,-0.099 -0.995,-0.066l-0.031,0.003c-0.043,0.001 -0.085,0.004 -0.128,0.008l-0.048,0.004c-0.351,0.022 -0.691,0.075 -1.018,0.158c-0.022,0.005 -0.045,0.01 -0.072,0.017c-0.21,0.058 -0.42,0.129 -0.623,0.212c0.162,-0.495 0.502,-0.923 0.965,-1.19m68.477,-39.515c0.652,-0.376 1.493,-0.376 2.143,-0.001l38.95,22.459l-40.009,23.104l-40.006,-23.101l38.922,-22.461Zm4.435,80.926l20.765,-11.922c0.231,-0.133 0.457,-0.289 0.707,-0.49l16.859,-9.735l0,44.294l-38.331,-22.147Zm-45.03,22.165l0,-44.308l38.339,22.139l-38.339,22.169Zm40.607,-19.619c0.652,-0.377 1.495,-0.377 2.146,-0.001l38.976,22.521l-40.019,23.112l-40.024,-23.126l38.921,-22.506Zm70.629,-43.963c0.471,0.274 0.816,0.711 0.976,1.212c-0.074,-0.028 -0.15,-0.056 -0.228,-0.083c-0.991,-0.37 -2.043,-0.428 -3.054,-0.184c-0.299,0.066 -0.589,0.155 -0.85,0.26c-0.046,0.012 -0.091,0.025 -0.148,0.049c-0.193,0.087 -0.394,0.181 -0.531,0.271l-15.825,9.142l-23.076,13.323c-0.222,-1.677 -1.194,-3.14 -2.694,-4.006l-20.783,-12.001l39.999,-23.098l26.214,15.115Zm1.703,-2.89l-68.531,-39.516c-0.819,-0.472 -1.767,-0.722 -2.742,-0.722c-0.975,0 -1.922,0.25 -2.74,0.722l-68.488,39.509c-1.692,0.981 -2.744,2.807 -2.744,4.768l0.008,1.323l-0.025,77.785c-0.001,1.955 1.05,3.777 2.743,4.754l68.537,39.571c0.832,0.481 1.781,0.735 2.743,0.735c0.962,0 1.911,-0.254 2.743,-0.735l68.499,-39.548c1.692,-0.978 2.744,-2.799 2.744,-4.753l0,-79.14c0,-1.956 -1.052,-3.777 -2.746,-4.753" style="fill-rule:nonzero;"/><path d="M227.509,98.965l-21.434,-45.649l-11.128,0l0,73.369l11.128,0l0,-49.051l17.312,35.758l8.244,0l16.9,-35.758l0,49.051l11.128,0l0,-73.369l-11.128,0l-21.022,45.649Z" style="fill-rule:nonzero;"/><rect x="281.302" y="53.315" width="11.128" height="73.369" style="fill-rule:nonzero;"/><path d="M358.276,104.839l-33.902,-51.523l-10.201,0l0,73.368l11.128,0l0,-51.626l33.902,51.626l10.202,0l0,-73.368l-11.129,0l0,51.523Z" style="fill-rule:nonzero;"/><path d="M384.659,63.311l20.196,0l0,63.373l11.13,0l0,-63.373l20.196,0l0,-9.995l-51.522,0l0,9.995Z" style="fill-rule:nonzero;"/><path d="M504.962,116.07c-4.225,4.431 -9.892,5.668 -15.766,5.668l-17.723,0l0,-63.477l17.723,0c5.874,0 11.541,1.236 15.766,5.668c5.462,5.771 5.462,16.384 5.462,26.071c0,9.686 0,20.299 -5.462,26.07m-14.426,-62.755l-24.628,0l0,73.369l24.628,0c7.728,0 13.911,-2.267 18.342,-6.698c7.007,-7.008 7.111,-19.063 7.111,-29.986c0,-10.924 -0.104,-22.979 -7.111,-29.987c-4.431,-4.43 -10.614,-6.698 -18.342,-6.698" style="fill-rule:nonzero;"/><path d="M535.776,126.684l44.515,0l0,-4.946l-38.952,0l0,-29.574l33.182,0l0,-4.947l-33.182,0l0,-28.955l38.952,0l0,-4.947l-44.516,0l0,73.369Z" style="fill-rule:nonzero;"/><path d="M634.186,92.885c-3.4,-2.885 -6.285,-4.019 -13.086,-5.049l-8.553,-1.34c-4.122,-0.619 -7.934,-2.06 -10.511,-4.225c-2.576,-2.163 -3.709,-5.461 -3.709,-9.686c0,-9.377 6.286,-15.148 17.002,-15.148c8.656,0 13.499,2.679 17.827,6.801l3.606,-3.606c-6.285,-5.462 -12.056,-7.935 -21.124,-7.935c-14.117,0 -22.773,7.832 -22.773,20.094c0,5.874 1.958,10.407 5.77,13.602c3.195,2.782 7.523,4.431 13.087,5.256l8.553,1.339c5.874,0.927 8.038,1.649 10.614,3.916c2.782,2.37 4.018,5.873 4.018,10.304c0,9.584 -7.212,15.148 -18.857,15.148c-8.758,0 -14.22,-2.061 -20.815,-8.656l-3.916,3.916c6.699,6.698 13.603,9.687 24.422,9.687c15.354,0 24.731,-7.935 24.731,-20.301c0,-5.976 -2.37,-10.717 -6.286,-14.117" style="fill-rule:nonzero;"/><rect x="657.889" y="53.315" width="5.564" height="73.369" style="fill-rule:nonzero;"/><path d="M708.38,94.121l19.682,0l0,6.595c0,6.286 -1.237,10.511 -4.432,14.53c-3.812,4.637 -9.478,7.11 -15.25,7.11c-5.358,0 -10.098,-1.855 -13.91,-5.667c-5.255,-5.255 -5.668,-11.233 -5.668,-26.689c0,-15.457 0.413,-21.433 5.668,-26.689c3.812,-3.813 8.552,-5.668 13.91,-5.668c9.892,0 17.313,6.286 19.476,16.487l5.564,0c-2.164,-12.88 -12.262,-21.433 -25.04,-21.433c-7.315,0 -13.499,2.68 -17.826,7.007c-6.801,6.801 -7.317,12.469 -7.317,30.296c0,17.826 0.516,23.494 7.317,30.295c4.327,4.329 10.511,7.007 17.826,7.007c7.42,0 14.53,-3.194 19.27,-8.45c4.327,-4.842 5.976,-9.995 5.976,-17.723l0,-11.954l-25.246,0l0,4.946Z" style="fill-rule:nonzero;"/><path d="M801.123,53.316l0,63.579l-42.35,-63.579l-5.566,0l0,73.369l5.566,0l0,-63.785l42.35,63.785l5.566,0l0,-73.369l-5.566,0Z" style="fill-rule:nonzero;"/></g></svg>