<?xml version="1.0" standalone="no"?><!DOCTYPE svg PUBLIC "-//W3C//DTD SVG 1.1//EN" "http://www.w3.org/Graphics/SVG/1.1/DTD/svg11.dtd"><svg width="160px" height="179px" viewBox="0 0 160 179" version="1.1" xmlns="http://www.w3.org/2000/svg" xmlns:xlink="http://www.w3.org/1999/xlink" xml:space="preserve" style="fill-rule:evenodd;clip-rule:evenodd;stroke-linejoin:round;stroke-miterlimit:1.41421;"><path d="M154.307,131.409c0,0.526 -0.185,1.03 -0.507,1.428c-0.021,-0.131 -0.049,-0.259 -0.079,-0.388l-0.015,-0.072c-0.016,-0.076 -0.033,-0.152 -0.056,-0.235c-0.006,-0.027 -0.013,-0.053 -0.021,-0.082c-0.02,-0.068 -0.046,-0.134 -0.072,-0.201l-0.053,-0.146c-0.032,-0.091 -0.064,-0.181 -0.101,-0.268c-0.042,-0.099 -0.091,-0.193 -0.14,-0.288l-0.067,-0.132c-0.038,-0.077 -0.078,-0.155 -0.121,-0.228c-0.072,-0.124 -0.154,-0.241 -0.237,-0.358l-0.061,-0.089c-0.034,-0.052 -0.069,-0.102 -0.105,-0.149c-0.129,-0.168 -0.277,-0.337 -0.445,-0.508l-0.03,-0.033c-0.367,-0.368 -0.775,-0.682 -1.214,-0.935l-23.598,-13.629l0,-50.678l23.551,-13.6c0.136,-0.079 0.291,-0.142 0.485,-0.201l0.033,-0.01c0.024,-0.007 0.046,-0.014 0.073,-0.021c0.148,-0.036 0.304,-0.057 0.462,-0.061c0.026,0 0.052,-0.002 0.09,-0.006c0.087,0.002 0.187,0.016 0.276,0.029l0.037,0.006c0.036,0.004 0.072,0.009 0.103,0.016c0.091,0.019 0.187,0.047 0.293,0.085c0.045,0.016 0.09,0.034 0.133,0.053c0.097,0.041 0.209,0.092 0.33,0.165c0.086,0.054 0.175,0.126 0.248,0.187c0.022,0.019 0.044,0.037 0.066,0.055c0.016,0.014 0.034,0.026 0.06,0.053c0.095,0.091 0.173,0.177 0.242,0.266c0.019,0.025 0.034,0.056 0.052,0.085c0.019,0.032 0.037,0.064 0.055,0.091l0.038,0.06c0.028,0.045 0.058,0.089 0.082,0.139c0.018,0.038 0.03,0.081 0.044,0.124l0.062,0.177c0.017,0.045 0.035,0.09 0.047,0.138c0.041,0.177 0.06,0.346 0.06,0.517l0,78.644ZM150.328,133.887l-0.02,0.18c-0.006,0.062 -0.01,0.125 -0.023,0.18c-0.025,0.108 -0.069,0.219 -0.127,0.355l-0.033,0.085c-0.01,0.025 -0.019,0.05 -0.027,0.067c-0.04,0.077 -0.104,0.162 -0.171,0.252l-0.02,0.029c-0.022,0.029 -0.042,0.059 -0.061,0.09l-0.019,0.029c-0.013,0.016 -0.026,0.033 -0.03,0.04c-0.124,0.14 -0.258,0.26 -0.401,0.356l-0.16,0.111l-40.975,23.671c-0.03,-0.231 -0.075,-0.459 -0.133,-0.685c-0.387,-1.492 -1.344,-2.749 -2.697,-3.539l-21.867,-12.626l42.081,-24.302l23.542,13.577l0.05,0.032c0.159,0.093 0.303,0.2 0.437,0.328l0.032,0.033c0.129,0.129 0.239,0.271 0.332,0.425l0.032,0.067c0.086,0.155 0.152,0.315 0.195,0.47c0.007,0.026 0.009,0.054 0.012,0.082c0.006,0.042 0.011,0.084 0.022,0.146c0.023,0.124 0.045,0.241 0.047,0.343c0.001,0.056 -0.008,0.125 -0.018,0.204M104.487,161.178c-0.116,0.18 -0.222,0.33 -0.372,0.492c-0.026,0.03 -0.055,0.056 -0.087,0.084l-22.86,13.199c-0.219,0.119 -0.401,0.194 -0.603,0.244c-0.381,0.106 -0.73,0.107 -1.163,-0.012c-0.039,-0.01 -0.076,-0.025 -0.115,-0.038l-0.07,-0.025c-0.035,-0.013 -0.068,-0.028 -0.081,-0.033c-0.094,-0.046 -0.188,-0.095 -0.253,-0.13l-68.189,-39.378c-0.102,-0.07 -0.182,-0.132 -0.267,-0.207c-0.039,-0.032 -0.077,-0.065 -0.097,-0.083c-0.405,-0.418 -0.629,-0.972 -0.629,-1.557c0,-0.816 0.421,-1.546 1.127,-1.954l23.564,-13.626l69.212,39.989c1.286,0.75 1.33,2.258 0.883,3.035M6.181,132.812c-0.31,-0.395 -0.488,-0.888 -0.488,-1.403l0,-78.644c0,-0.633 0.238,-1.179 0.719,-1.633c0.117,-0.118 0.266,-0.225 0.464,-0.333c0.038,-0.021 0.077,-0.04 0.124,-0.062c0.09,-0.043 0.193,-0.083 0.316,-0.12l0.065,-0.02c0.035,-0.011 0.07,-0.023 0.104,-0.03c0.131,-0.029 0.266,-0.045 0.402,-0.049c0.026,-0.001 0.053,-0.004 0.081,-0.007c0.158,0.002 0.323,0.025 0.502,0.07c0.014,0.004 0.027,0.009 0.042,0.014l0.072,0.024c0.196,0.061 0.34,0.119 0.462,0.19l23.569,13.609l0,50.677l-23.834,13.74c-1.413,0.9 -2.349,2.35 -2.6,3.977M6.79,46.172l27.584,-15.917l42.095,24.307l-0.011,0.006l27.148,15.676c0.634,0.37 1.042,0.999 1.119,1.725c0.002,0.021 0.005,0.042 0.009,0.066c0.01,0.123 0.005,0.261 -0.014,0.431l-0.005,0.041c-0.004,0.034 -0.007,0.068 -0.014,0.105c-0.021,0.118 -0.054,0.239 -0.099,0.365c-0.021,0.057 -0.044,0.113 -0.07,0.168c-0.052,0.114 -0.106,0.212 -0.162,0.297c-0.041,0.062 -0.09,0.119 -0.139,0.178c-0.071,0.086 -0.14,0.168 -0.214,0.234c-0.119,0.109 -0.25,0.22 -0.391,0.301l-22.496,12.917c-0.67,0.384 -1.586,0.384 -2.252,-0.003l-44.41,-25.644l-23.573,-13.618c-0.204,-0.128 -0.406,-0.226 -0.74,-0.375c-0.045,-0.019 -0.091,-0.032 -0.146,-0.046c-0.279,-0.108 -0.577,-0.194 -0.912,-0.264l-0.064,-0.014c-0.064,-0.014 -0.128,-0.027 -0.191,-0.037c-0.4,-0.064 -0.729,-0.104 -1.047,-0.07l-0.033,0.004c-0.046,0.001 -0.09,0.004 -0.134,0.008l-0.051,0.004c-0.369,0.024 -0.727,0.08 -1.071,0.167c-0.024,0.005 -0.048,0.01 -0.076,0.018c-0.221,0.06 -0.442,0.135 -0.656,0.223c0.171,-0.52 0.529,-0.972 1.016,-1.253M78.858,4.585c0.686,-0.396 1.571,-0.395 2.255,-0.001l40.992,23.637l-42.106,24.315l-42.105,-24.313l40.964,-23.638l0,0ZM83.525,89.754l21.854,-12.547c0.243,-0.139 0.481,-0.304 0.744,-0.515l17.743,-10.245l0,46.616l-40.341,-23.309ZM36.134,113.082l0,-46.632l40.349,23.3l-40.349,23.332l0,0ZM78.87,92.434c0.687,-0.396 1.573,-0.396 2.259,0l41.02,23.701l-42.118,24.324l-42.123,-24.338l40.962,-23.687ZM153.203,46.166c0.496,0.288 0.859,0.748 1.028,1.276c-0.078,-0.031 -0.158,-0.06 -0.241,-0.088c-1.043,-0.389 -2.15,-0.45 -3.214,-0.193c-0.315,0.068 -0.62,0.163 -0.895,0.273c-0.048,0.012 -0.096,0.026 -0.155,0.052c-0.203,0.091 -0.415,0.19 -0.56,0.285l-16.655,9.621l-24.285,14.022c-0.234,-1.765 -1.256,-3.305 -2.835,-4.216l-21.874,-12.63l42.097,-24.309l27.589,15.907ZM154.995,43.124l-72.125,-41.588c-0.862,-0.497 -1.859,-0.76 -2.885,-0.76c-1.026,0 -2.024,0.263 -2.885,0.761l-72.078,41.58c-1.782,1.032 -2.889,2.954 -2.889,5.018l0.009,1.393l-0.027,81.864c-0.001,2.057 1.106,3.974 2.888,5.003l72.13,41.646c0.876,0.506 1.875,0.774 2.887,0.774c1.012,0 2.01,-0.268 2.887,-0.774l72.09,-41.622c1.782,-1.029 2.888,-2.945 2.888,-5.002l0,-83.29c0,-2.059 -1.107,-3.976 -2.89,-5.003" style="fill:#fff;fill-rule:nonzero;"/></svg>
