<?xml version="1.0" standalone="no"?>
<!DOCTYPE svg PUBLIC "-//W3C//DTD SVG 1.1//EN" "http://www.w3.org/Graphics/SVG/1.1/DTD/svg11.dtd">
<svg width="450px" height="500px" version="1.1" xmlns="http://www.w3.org/2000/svg" xmlns:xlink="http://www.w3.org/1999/xlink" xml:space="preserve" style="fill-rule:evenodd;clip-rule:evenodd;stroke-linejoin:round;stroke-miterlimit:1.41421;">
    <g>
        <g>
            <g>
                <path d="M432.981,135.027C432.782,134.898 432.561,134.8 432.355,134.681C432.162,134.57 431.987,134.433 431.788,134.33C431.704,134.286 431.612,134.266 431.527,134.224C431.016,133.976 430.484,133.767 429.94,133.579C427.429,132.641 424.745,132.415 421.883,133.104C421.111,133.273 420.35,133.504 419.607,133.803C419.492,133.85 419.384,133.859 419.268,133.907C418.759,134.136 418.229,134.385 417.855,134.627L371.602,161.348L301.963,201.556C301.967,201.42 301.989,201.287 301.99,201.149C301.995,195.901 299.287,191.203 294.742,188.579L231.683,152.168L351.675,82.8773L429.066,127.501C431.483,128.903 432.985,131.502 432.985,134.264ZM432.902,365.566C432.902,368.349 431.402,370.95 428.993,372.345L428.596,372.573C428.601,372.458 428.594,372.339 428.596,372.222C428.597,372.156 428.609,372.091 428.609,372.024C428.609,371.964 428.598,371.907 428.598,371.847C428.596,371.722 428.612,371.599 428.607,371.475C428.596,371.163 428.546,370.862 428.515,370.554C428.494,370.339 428.48,370.124 428.45,369.913C428.395,369.535 428.313,369.164 428.229,368.793C428.173,368.541 428.125,368.288 428.056,368.042C428.035,367.967 428.022,367.89 428,367.815C427.929,367.579 427.827,367.354 427.744,367.122C427.643,366.836 427.55,366.548 427.431,366.271C427.303,365.973 427.149,365.689 427.002,365.401C426.873,365.149 426.754,364.892 426.61,364.648C426.412,364.312 426.185,363.995 425.961,363.676C425.838,363.503 425.729,363.321 425.599,363.154C425.249,362.7 424.868,362.27 424.464,361.861C424.444,361.84 424.427,361.819 424.407,361.798C423.511,360.899 422.494,360.101 421.358,359.446L355.052,321.151L355.052,178.633L374.751,167.252L421.231,140.415C421.77,140.108 422.33,139.892 422.899,139.721C423.022,139.685 423.144,139.645 423.269,139.614C423.799,139.483 424.34,139.412 424.89,139.399C424.982,139.397 425.072,139.381 425.164,139.383C425.495,139.387 425.827,139.429 426.159,139.479C426.324,139.502 426.49,139.524 426.654,139.558C426.993,139.631 427.329,139.731 427.66,139.85C427.816,139.906 427.969,139.965 428.121,140.031C428.479,140.184 428.834,140.35 429.17,140.555C429.195,140.57 429.22,140.584 429.245,140.599C429.558,140.795 429.847,141.03 430.133,141.268C430.264,141.383 430.4,141.479 430.53,141.61C430.826,141.892 431.106,142.194 431.358,142.524C431.496,142.703 431.614,142.933 431.744,143.139C431.886,143.369 432.039,143.59 432.157,143.838C432.268,144.068 432.344,144.343 432.435,144.6C432.525,144.858 432.632,145.107 432.695,145.382C432.82,145.926 432.902,146.513 432.902,147.161ZM421.812,372.875C421.778,373.186 421.76,373.503 421.691,373.804C421.59,374.229 421.43,374.63 421.26,375.028C421.185,375.209 421.125,375.397 421.037,375.57C420.855,375.917 420.616,376.23 420.383,376.547C420.288,376.676 420.217,376.816 420.113,376.939C420.07,376.993 420.034,377.051 419.989,377.101C419.579,377.563 419.115,377.984 418.59,378.341L418.593,378.345C418.505,378.407 418.43,378.482 418.339,378.539L302.078,445.706C302.12,444.331 301.97,442.944 301.621,441.596C300.651,437.85 298.252,434.7 294.856,432.718L231.815,396.316L351.76,327.046L418.024,365.263C418.037,365.27 418.047,365.284 418.061,365.291C418.654,365.639 419.192,366.048 419.661,366.515C419.667,366.521 419.671,366.53 419.678,366.536C420.147,367.009 420.551,367.533 420.88,368.102C420.906,368.146 420.918,368.198 420.942,368.244C421.23,368.764 421.463,369.316 421.624,369.896C421.686,370.12 421.697,370.366 421.738,370.599C421.813,371.012 421.892,371.425 421.901,371.855C421.907,372.203 421.85,372.537 421.812,372.875M294.299,449.075C293.972,449.58 293.623,450.091 293.137,450.614C292.981,450.792 292.8,450.946 292.62,451.102L228.982,487.847C228.277,488.231 227.649,488.49 226.98,488.657C225.722,489.007 224.408,489.03 222.973,488.634C222.768,488.584 222.566,488.504 222.361,488.431L222.334,488.423C222.193,488.371 222.054,488.313 221.916,488.252C221.638,488.116 221.355,487.97 221.127,487.845L31.7111,378.459C31.3911,378.243 31.0841,378.017 30.8041,377.765C30.6691,377.652 30.5351,377.54 30.4101,377.419C29.0281,375.992 28.2301,374.093 28.2281,372.022C28.2281,369.2 29.6861,366.673 32.1281,365.261L98.3421,326.973L291.331,438.476C295.53,440.927 296.097,445.96 294.299,449.075M21.3521,371.705C21.3481,371.995 21.3801,372.279 21.3921,372.567L21.0161,372.35C18.5991,370.95 17.0991,368.351 17.0991,365.566L17.0991,147.161C17.0991,144.422 18.3881,142.63 19.5441,141.537C20.0091,141.07 20.5621,140.69 21.1971,140.342C21.3291,140.271 21.4641,140.205 21.5991,140.142C21.9561,139.969 22.3261,139.835 22.7031,139.721C22.8981,139.662 23.0901,139.595 23.2871,139.55C23.7481,139.451 24.2171,139.393 24.6881,139.38C24.7571,139.378 24.8261,139.358 24.8941,139.358C25.5191,139.358 26.1311,139.451 26.7301,139.602C26.8591,139.635 26.9941,139.689 27.1251,139.729C27.6711,139.898 28.2101,140.1 28.7241,140.394L94.9481,178.635L94.9481,321.149L28.0461,359.717C23.9281,362.341 21.4251,366.822 21.3521,371.705M232.253,250.201C232.043,250.08 231.818,249.993 231.603,249.884C231.812,249.776 232.03,249.691 232.234,249.574L294.712,213.703C295.415,213.3 296.058,212.831 296.671,212.334L348.364,182.486L348.364,317.29ZM101.636,317.344L101.636,182.496L217.766,249.555C217.976,249.676 218.2,249.764 218.415,249.876C218.193,249.987 217.962,250.078 217.747,250.202ZM221.093,255.992C222.28,255.306 223.63,254.943 225.002,254.943C226.371,254.943 227.722,255.306 228.907,255.99L345.136,323.147L225.088,392.479L105.023,323.109ZM17.0111,134.276C17.0111,131.495 18.5071,128.905 20.9161,127.517L98.2911,82.8673L218.31,152.168L218.279,152.186L291.335,194.37C293.541,195.659 294.932,197.83 295.198,200.334C295.205,200.409 295.221,200.482 295.226,200.557C295.266,201.062 295.237,201.562 295.181,202.055C295.162,202.221 295.146,202.386 295.116,202.549C295.039,202.985 294.919,203.41 294.77,203.825C294.698,204.02 294.617,204.213 294.53,204.403C294.365,204.764 294.177,205.113 293.958,205.446C293.814,205.659 293.649,205.859 293.484,206.058C293.25,206.343 293.011,206.625 292.734,206.873C292.318,207.249 291.884,207.614 291.381,207.902L228.905,243.773C226.533,245.133 223.473,245.132 221.112,243.764L97.7831,172.546L32.2621,134.697C31.7671,134.384 31.2401,134.134 30.4281,133.771C30.3281,133.729 30.2191,133.721 30.1181,133.681C29.3591,133.383 28.5771,133.166 27.7841,133.001C27.5681,132.956 27.3591,132.906 27.1411,132.872C26.3971,132.753 25.6471,132.67 24.8941,132.67C24.7371,132.67 24.5881,132.699 24.4321,132.705C24.2771,132.711 24.1261,132.728 23.9711,132.739C23.0551,132.797 22.1641,132.931 21.3021,133.152C21.2331,133.17 21.1631,133.181 21.0951,133.198C20.1051,133.469 19.1631,133.842 18.2691,134.305C18.2561,134.311 18.2401,134.312 18.2271,134.32C18.1881,134.341 18.1551,134.368 18.1171,134.389C17.7441,134.587 17.3631,134.773 17.0111,135.002ZM221.058,12.0223C222.243,11.3393 223.592,10.9773 224.959,10.9773C226.327,10.9773 227.677,11.3393 228.861,12.0203L345.017,78.9993L224.997,148.306L104.981,79.0073ZM432.501,121.723L232.201,6.22735C227.802,3.69235 222.115,3.69035 217.716,6.22935L17.5511,121.702C13.0771,124.294 10.2981,129.111 10.2981,134.293L10.3211,138.171L10.2461,365.518C10.2441,370.683 13.0211,375.495 17.4951,378.076L217.808,493.732C220.008,495.002 222.514,495.674 225.055,495.674C227.597,495.674 230.103,495.002 232.303,493.732L432.507,378.142C436.976,375.56 439.754,370.75 439.754,365.587L439.754,134.28C439.754,129.113 436.974,124.301 432.501,121.723" style="fill:white;fill-rule:nonzero;"/>
            </g>
        </g>
    </g>
</svg>
