<?xml version="1.0" standalone="no"?><!DOCTYPE svg PUBLIC "-//W3C//DTD SVG 1.1//EN" "http://www.w3.org/Graphics/SVG/1.1/DTD/svg11.dtd"><svg width="396px" height="88px" viewBox="0 0 396 88" version="1.1" xmlns="http://www.w3.org/2000/svg" xmlns:xlink="http://www.w3.org/1999/xlink" xml:space="preserve" style="fill-rule:evenodd;clip-rule:evenodd;stroke-linejoin:round;stroke-miterlimit:1.41421;"><path d="M72.29,63.335c0,0.244 -0.086,0.478 -0.236,0.663c-0.01,-0.061 -0.023,-0.121 -0.036,-0.18l-0.007,-0.033c-0.008,-0.036 -0.016,-0.071 -0.026,-0.11c-0.003,-0.012 -0.006,-0.024 -0.01,-0.038c-0.01,-0.032 -0.022,-0.062 -0.033,-0.093l-0.026,-0.068c-0.014,-0.043 -0.029,-0.085 -0.047,-0.125c-0.019,-0.046 -0.041,-0.09 -0.064,-0.134l-0.032,-0.061c-0.018,-0.036 -0.035,-0.072 -0.055,-0.106c-0.034,-0.057 -0.073,-0.111 -0.111,-0.166l-0.029,-0.042c-0.015,-0.024 -0.031,-0.047 -0.047,-0.069c-0.061,-0.078 -0.13,-0.156 -0.207,-0.235l-0.015,-0.016c-0.17,-0.171 -0.36,-0.317 -0.563,-0.435l-10.965,-6.332l0,-23.546l10.943,-6.319c0.063,-0.037 0.135,-0.066 0.225,-0.093l0.015,-0.005c0.012,-0.004 0.022,-0.007 0.034,-0.01c0.069,-0.017 0.142,-0.026 0.215,-0.028c0.012,0 0.024,-0.001 0.042,-0.003c0.04,0.001 0.087,0.008 0.128,0.013l0.017,0.003c0.017,0.002 0.033,0.004 0.048,0.007c0.042,0.009 0.086,0.023 0.136,0.04c0.021,0.008 0.041,0.016 0.061,0.025c0.046,0.019 0.098,0.042 0.154,0.076c0.04,0.025 0.082,0.059 0.115,0.087c0.01,0.009 0.021,0.018 0.031,0.026c0.008,0.006 0.016,0.012 0.028,0.024c0.044,0.042 0.081,0.083 0.112,0.124c0.009,0.011 0.017,0.026 0.025,0.04c0.008,0.014 0.017,0.029 0.025,0.042l0.017,0.028c0.014,0.02 0.028,0.041 0.039,0.064c0.008,0.018 0.014,0.038 0.021,0.057l0.029,0.083c0.007,0.021 0.015,0.042 0.021,0.064c0.018,0.083 0.028,0.161 0.028,0.24l0,36.541ZM70.442,64.486l-0.01,0.083c-0.003,0.03 -0.005,0.059 -0.011,0.084c-0.012,0.05 -0.032,0.102 -0.059,0.165l-0.015,0.04c-0.005,0.011 -0.009,0.022 -0.013,0.031c-0.019,0.035 -0.048,0.075 -0.079,0.117l-0.01,0.013c-0.01,0.014 -0.019,0.028 -0.028,0.042l-0.009,0.014c-0.007,0.007 -0.012,0.015 -0.013,0.018c-0.058,0.065 -0.121,0.121 -0.187,0.166l-0.075,0.051l-19.038,10.999c-0.013,-0.108 -0.035,-0.214 -0.061,-0.319c-0.181,-0.693 -0.625,-1.277 -1.253,-1.644l-10.161,-5.867l19.552,-11.291l10.938,6.309l0.024,0.014c0.074,0.043 0.141,0.093 0.203,0.152l0.015,0.016c0.06,0.06 0.111,0.126 0.154,0.197l0.015,0.031c0.04,0.073 0.07,0.147 0.091,0.219c0.003,0.012 0.004,0.025 0.005,0.038c0.003,0.02 0.005,0.039 0.011,0.067c0.011,0.058 0.02,0.113 0.021,0.16c0,0.026 -0.003,0.058 -0.007,0.095M49.142,77.166c-0.054,0.084 -0.103,0.153 -0.173,0.229c-0.011,0.013 -0.026,0.026 -0.04,0.038l-10.622,6.133c-0.102,0.056 -0.186,0.09 -0.28,0.114c-0.177,0.049 -0.339,0.05 -0.541,-0.006c-0.017,-0.005 -0.035,-0.011 -0.053,-0.018l-0.032,-0.011c-0.017,-0.006 -0.032,-0.013 -0.038,-0.016c-0.044,-0.021 -0.088,-0.044 -0.118,-0.06l-31.682,-18.296c-0.048,-0.032 -0.085,-0.061 -0.124,-0.096c-0.018,-0.015 -0.036,-0.03 -0.045,-0.038c-0.188,-0.195 -0.293,-0.452 -0.293,-0.724c0,-0.379 0.196,-0.718 0.524,-0.908l10.949,-6.331l32.158,18.58c0.597,0.348 0.618,1.049 0.41,1.41M3.466,63.986c-0.144,-0.183 -0.227,-0.412 -0.227,-0.651l0,-36.541c0,-0.294 0.111,-0.547 0.334,-0.759c0.055,-0.054 0.124,-0.104 0.216,-0.154c0.017,-0.01 0.036,-0.019 0.058,-0.029c0.041,-0.02 0.089,-0.038 0.146,-0.055l0.03,-0.01c0.017,-0.005 0.033,-0.01 0.049,-0.014c0.061,-0.013 0.123,-0.021 0.187,-0.023c0.012,0 0.024,-0.001 0.037,-0.003c0.074,0.001 0.15,0.012 0.233,0.033c0.007,0.002 0.013,0.004 0.02,0.006l0.034,0.011c0.09,0.029 0.157,0.056 0.214,0.089l10.951,6.323l0,23.545l-11.074,6.385c-0.656,0.418 -1.091,1.091 -1.208,1.847M3.749,23.731l12.816,-7.395l19.559,11.293l-0.005,0.003l12.614,7.283c0.294,0.173 0.484,0.465 0.519,0.802c0.001,0.01 0.003,0.019 0.004,0.031c0.005,0.057 0.003,0.121 -0.006,0.2l-0.002,0.019c-0.002,0.016 -0.004,0.032 -0.006,0.049c-0.01,0.055 -0.025,0.111 -0.047,0.169c-0.01,0.027 -0.02,0.053 -0.033,0.079c-0.023,0.052 -0.048,0.098 -0.074,0.137c-0.019,0.029 -0.042,0.056 -0.065,0.083c-0.033,0.04 -0.065,0.078 -0.099,0.109c-0.056,0.051 -0.117,0.102 -0.182,0.14l-10.453,6.001c-0.311,0.179 -0.736,0.179 -1.046,-0.001l-20.634,-11.915l-10.953,-6.327c-0.095,-0.06 -0.188,-0.105 -0.344,-0.175c-0.02,-0.008 -0.042,-0.015 -0.067,-0.021c-0.13,-0.05 -0.269,-0.09 -0.424,-0.123l-0.03,-0.006c-0.03,-0.006 -0.059,-0.012 -0.089,-0.017c-0.185,-0.03 -0.339,-0.049 -0.486,-0.033l-0.015,0.002c-0.021,0 -0.042,0.002 -0.063,0.004l-0.023,0.002c-0.172,0.011 -0.338,0.036 -0.498,0.077c-0.011,0.003 -0.022,0.005 -0.035,0.008c-0.103,0.029 -0.206,0.063 -0.305,0.104c0.079,-0.242 0.245,-0.451 0.472,-0.582M37.234,4.409c0.318,-0.184 0.73,-0.184 1.048,-0.001l19.046,10.982l-19.564,11.298l-19.563,-11.296l19.033,-10.983ZM39.402,43.981l10.154,-5.83c0.114,-0.065 0.224,-0.141 0.346,-0.24l8.244,-4.76l0,21.66l-18.744,-10.83ZM17.383,54.819l0,-21.666l18.747,10.826l-18.747,10.84ZM37.24,45.226c0.318,-0.184 0.731,-0.184 1.049,-0.001l19.059,11.013l-19.569,11.302l-19.572,-11.309l19.033,-11.005ZM71.776,23.728c0.231,0.134 0.4,0.348 0.478,0.593c-0.036,-0.014 -0.074,-0.028 -0.111,-0.041c-0.485,-0.181 -0.999,-0.209 -1.494,-0.09c-0.146,0.033 -0.288,0.076 -0.416,0.127c-0.022,0.006 -0.044,0.013 -0.072,0.024c-0.094,0.043 -0.193,0.089 -0.259,0.133l-7.739,4.47l-11.284,6.515c-0.109,-0.82 -0.584,-1.535 -1.317,-1.959l-10.163,-5.868l19.559,-11.295l12.818,7.391ZM72.61,22.315l-33.512,-19.323c-0.4,-0.231 -0.864,-0.353 -1.341,-0.353c-0.476,0 -0.94,0.122 -1.34,0.353l-33.49,19.32c-0.828,0.479 -1.342,1.372 -1.342,2.331l0.004,0.647l-0.012,38.036c-0.001,0.956 0.514,1.847 1.341,2.325l33.514,19.35c0.408,0.235 0.872,0.359 1.342,0.359c0.47,0 0.934,-0.124 1.341,-0.359l33.496,-19.339c0.827,-0.478 1.342,-1.368 1.342,-2.324l0,-38.699c0,-0.956 -0.515,-1.847 -1.343,-2.324" style="fill:#fff;fill-rule:nonzero;"/><path d="M111.208,48.383l-10.481,-22.322l-5.442,0l0,35.878l5.442,0l0,-23.986l8.465,17.485l4.032,0l8.264,-17.485l0,23.986l5.441,0l0,-35.878l-5.441,0l-10.28,22.322Z" style="fill:#fff;fill-rule:nonzero;"/><rect x="137.512" y="26.061" width="5.442" height="35.877" style="fill:#fff;"/><path d="M175.152,51.256l-16.578,-25.194l-4.988,0l0,35.876l5.442,0l0,-25.245l16.578,25.245l4.988,0l0,-35.876l-5.442,0l0,25.194Z" style="fill:#fff;fill-rule:nonzero;"/><path d="M188.053,30.949l9.876,0l0,30.989l5.443,0l0,-30.989l9.875,0l0,-4.887l-25.194,0l0,4.887Z" style="fill:#fff;fill-rule:nonzero;"/><path d="M246.881,56.748c-2.066,2.167 -4.837,2.772 -7.709,2.772l-8.667,0l0,-31.04l8.667,0c2.872,0 5.643,0.604 7.709,2.771c2.671,2.822 2.671,8.012 2.671,12.749c0,4.736 0,9.926 -2.671,12.748M239.827,26.061l-12.043,0l0,35.877l12.043,0c3.779,0 6.802,-1.108 8.969,-3.275c3.426,-3.427 3.477,-9.322 3.477,-14.663c0,-5.342 -0.051,-11.237 -3.477,-14.663c-2.167,-2.167 -5.19,-3.276 -8.969,-3.276" style="fill:#fff;fill-rule:nonzero;"/><path d="M261.948,61.938l21.769,0l0,-2.418l-19.047,0l0,-14.462l16.225,0l0,-2.419l-16.225,0l0,-14.159l19.047,0l0,-2.419l-21.769,0l0,35.877Z" style="fill:#fff;fill-rule:nonzero;"/><path d="M310.071,45.411c-1.663,-1.411 -3.074,-1.966 -6.399,-2.469l-4.183,-0.656c-2.015,-0.302 -3.879,-1.007 -5.139,-2.066c-1.26,-1.057 -1.814,-2.67 -1.814,-4.736c0,-4.585 3.074,-7.407 8.314,-7.407c4.233,0 6.601,1.31 8.717,3.325l1.763,-1.763c-3.073,-2.671 -5.895,-3.88 -10.329,-3.88c-6.903,0 -11.136,3.83 -11.136,9.826c0,2.872 0.958,5.089 2.822,6.651c1.562,1.36 3.678,2.167 6.399,2.57l4.182,0.655c2.873,0.453 3.931,0.806 5.191,1.915c1.36,1.159 1.964,2.872 1.964,5.038c0,4.687 -3.526,7.408 -9.221,7.408c-4.282,0 -6.953,-1.008 -10.178,-4.233l-1.915,1.915c3.276,3.275 6.652,4.737 11.942,4.737c7.508,0 12.094,-3.88 12.094,-9.927c0,-2.923 -1.159,-5.241 -3.074,-6.903" style="fill:#fff;fill-rule:nonzero;"/><rect x="321.661" y="26.061" width="2.721" height="35.877" style="fill:#fff;"/><path d="M346.351,46.015l9.625,0l0,3.225c0,3.074 -0.605,5.14 -2.168,7.105c-1.864,2.267 -4.634,3.477 -7.457,3.477c-2.62,0 -4.938,-0.907 -6.802,-2.771c-2.569,-2.57 -2.771,-5.493 -2.771,-13.051c0,-7.558 0.202,-10.481 2.771,-13.051c1.864,-1.864 4.182,-2.771 6.802,-2.771c4.837,0 8.466,3.073 9.524,8.062l2.721,0c-1.058,-6.299 -5.996,-10.481 -12.245,-10.481c-3.577,0 -6.601,1.311 -8.717,3.426c-3.325,3.326 -3.578,6.098 -3.578,14.815c0,8.717 0.253,11.488 3.578,14.814c2.116,2.117 5.14,3.426 8.717,3.426c3.629,0 7.105,-1.562 9.423,-4.132c2.116,-2.367 2.922,-4.887 2.922,-8.666l0,-5.845l-12.345,0l0,2.418Z" style="fill:#fff;fill-rule:nonzero;"/><path d="M391.702,26.061l0,31.09l-20.709,-31.09l-2.722,0l0,35.878l2.722,0l0,-31.191l20.709,31.191l2.722,0l0,-35.878l-2.722,0Z" style="fill:#fff;fill-rule:nonzero;"/></svg>
