<?xml version="1.0" standalone="no"?>
<!DOCTYPE svg PUBLIC "-//W3C//DTD SVG 1.1//EN" "http://www.w3.org/Graphics/SVG/1.1/DTD/svg11.dtd">
<svg width="450px" height="570px" version="1.1" xmlns="http://www.w3.org/2000/svg" xmlns:xlink="http://www.w3.org/1999/xlink" xml:space="preserve" style="fill-rule:evenodd;clip-rule:evenodd;stroke-linejoin:round;stroke-miterlimit:1.41421;">
    <g>
        <g>
            <path d="M432.981,135.804C432.782,135.675 432.561,135.577 432.355,135.458C432.162,135.347 431.987,135.21 431.788,135.107C431.704,135.063 431.612,135.043 431.527,135.001C431.016,134.753 430.484,134.544 429.94,134.356C427.429,133.418 424.745,133.192 421.883,133.881C421.111,134.05 420.35,134.281 419.607,134.58C419.492,134.627 419.384,134.636 419.268,134.684C418.759,134.913 418.229,135.162 417.855,135.404L371.602,162.125L301.963,202.333C301.967,202.197 301.989,202.064 301.99,201.926C301.995,196.678 299.287,191.98 294.742,189.356L231.683,152.945L351.675,83.6539L429.066,128.278C431.483,129.68 432.985,132.279 432.985,135.041L432.981,135.804ZM432.902,366.343C432.902,369.126 431.402,371.727 428.993,373.122L428.596,373.35C428.601,373.235 428.594,373.116 428.596,372.999C428.597,372.933 428.609,372.868 428.609,372.801C428.609,372.741 428.598,372.684 428.598,372.624C428.596,372.499 428.612,372.376 428.607,372.252C428.596,371.94 428.546,371.639 428.515,371.331C428.494,371.116 428.48,370.901 428.45,370.69C428.395,370.312 428.313,369.941 428.229,369.57C428.173,369.318 428.125,369.065 428.056,368.819C428.035,368.744 428.022,368.667 428,368.592C427.929,368.356 427.827,368.131 427.744,367.899C427.643,367.613 427.55,367.325 427.431,367.048C427.303,366.75 427.149,366.466 427.002,366.178C426.873,365.926 426.754,365.669 426.61,365.425C426.412,365.089 426.185,364.772 425.961,364.453C425.838,364.28 425.729,364.098 425.599,363.931C425.249,363.477 424.868,363.047 424.464,362.638C424.444,362.617 424.427,362.596 424.407,362.575C423.511,361.676 422.494,360.878 421.358,360.223L355.052,321.928L355.052,179.41L374.751,168.029L421.231,141.192C421.77,140.885 422.33,140.669 422.899,140.498C423.022,140.462 423.144,140.422 423.269,140.391C423.799,140.26 424.34,140.189 424.89,140.176C424.982,140.174 425.072,140.158 425.164,140.16C425.495,140.164 425.827,140.206 426.159,140.256C426.324,140.279 426.49,140.301 426.654,140.335C426.993,140.408 427.329,140.508 427.66,140.627C427.816,140.683 427.969,140.742 428.121,140.808C428.479,140.961 428.834,141.127 429.17,141.332C429.195,141.347 429.22,141.361 429.245,141.376C429.558,141.572 429.847,141.807 430.133,142.045C430.264,142.16 430.4,142.256 430.53,142.387C430.826,142.669 431.106,142.971 431.358,143.301C431.496,143.48 431.614,143.71 431.744,143.916C431.886,144.146 432.039,144.367 432.157,144.615C432.268,144.845 432.344,145.12 432.435,145.377C432.525,145.635 432.632,145.884 432.695,146.159C432.82,146.703 432.902,147.29 432.902,147.938L432.902,366.343ZM421.812,373.652C421.778,373.963 421.76,374.28 421.691,374.581C421.59,375.006 421.43,375.407 421.26,375.805C421.185,375.986 421.125,376.174 421.037,376.347C420.855,376.694 420.616,377.007 420.383,377.324C420.288,377.453 420.217,377.593 420.113,377.716C420.07,377.77 420.034,377.828 419.989,377.878C419.579,378.34 419.115,378.761 418.59,379.118L418.593,379.122C418.505,379.184 418.43,379.259 418.339,379.316L302.078,446.483C302.12,445.108 301.97,443.721 301.621,442.373C300.651,438.627 298.252,435.477 294.856,433.495L231.815,397.093L351.76,327.823L418.024,366.04C418.037,366.047 418.047,366.061 418.061,366.068C418.654,366.416 419.192,366.825 419.661,367.292C419.667,367.298 419.671,367.307 419.678,367.313C420.147,367.786 420.551,368.31 420.88,368.879C420.906,368.923 420.918,368.975 420.942,369.021C421.23,369.541 421.463,370.093 421.624,370.673C421.686,370.897 421.697,371.143 421.738,371.376C421.813,371.789 421.892,372.202 421.901,372.632C421.907,372.98 421.85,373.314 421.812,373.652M294.299,449.852C293.972,450.357 293.623,450.868 293.137,451.391C292.981,451.569 292.8,451.723 292.62,451.879L228.982,488.624C228.277,489.008 227.649,489.267 226.98,489.434C225.722,489.784 224.408,489.807 222.973,489.411C222.768,489.361 222.566,489.281 222.361,489.208L222.334,489.2C222.193,489.148 222.054,489.09 221.916,489.029C221.638,488.893 221.355,488.747 221.127,488.622L31.7112,379.236C31.3912,379.02 31.0842,378.794 30.8042,378.542C30.6692,378.429 30.5352,378.317 30.4102,378.196C29.0282,376.769 28.2302,374.87 28.2282,372.799C28.2282,369.977 29.6862,367.45 32.1282,366.038L98.3422,327.75L291.331,439.253C295.53,441.704 296.097,446.737 294.299,449.852M21.3522,372.482C21.3482,372.772 21.3802,373.056 21.3922,373.344L21.0162,373.127C18.5992,371.727 17.0992,369.128 17.0992,366.343L17.0992,147.938C17.0992,145.199 18.3882,143.407 19.5442,142.314C20.0092,141.847 20.5622,141.467 21.1972,141.119C21.3292,141.048 21.4642,140.982 21.5992,140.919C21.9562,140.746 22.3262,140.612 22.7032,140.498C22.8982,140.439 23.0902,140.372 23.2872,140.327C23.7482,140.228 24.2172,140.17 24.6882,140.157C24.7572,140.155 24.8262,140.135 24.8942,140.135C25.5192,140.135 26.1312,140.228 26.7302,140.379C26.8592,140.412 26.9942,140.466 27.1252,140.506C27.6712,140.675 28.2102,140.877 28.7242,141.171L94.9482,179.412L94.9482,321.926L28.0462,360.494C23.9282,363.118 21.4252,367.599 21.3522,372.482M232.253,250.978C232.043,250.857 231.818,250.77 231.603,250.661C231.812,250.553 232.03,250.468 232.234,250.351L294.712,214.48C295.415,214.077 296.058,213.608 296.671,213.111L348.364,183.263L348.364,318.067L232.253,250.978ZM101.636,318.121L101.636,183.273L217.766,250.332C217.976,250.453 218.2,250.541 218.415,250.653C218.193,250.764 217.962,250.855 217.747,250.979L101.636,318.121ZM221.093,256.769C222.28,256.083 223.63,255.72 225.002,255.72C226.371,255.72 227.722,256.083 228.907,256.767L345.136,323.924L225.088,393.256L105.023,323.886L221.093,256.769ZM17.0112,135.053C17.0112,132.272 18.5072,129.682 20.9162,128.294L98.2912,83.6439L218.31,152.945L218.279,152.963L291.335,195.147C293.541,196.436 294.932,198.607 295.198,201.111C295.205,201.186 295.221,201.259 295.226,201.334C295.266,201.839 295.237,202.339 295.181,202.832C295.162,202.998 295.146,203.163 295.116,203.326C295.039,203.762 294.919,204.187 294.77,204.602C294.698,204.797 294.617,204.99 294.53,205.18C294.365,205.541 294.177,205.89 293.958,206.223C293.814,206.436 293.649,206.636 293.484,206.835C293.25,207.12 293.011,207.402 292.734,207.65C292.318,208.026 291.884,208.391 291.381,208.679L228.905,244.55C226.533,245.91 223.473,245.909 221.112,244.541L97.7832,173.323L32.2622,135.474C31.7672,135.161 31.2402,134.911 30.4282,134.548C30.3282,134.506 30.2192,134.498 30.1182,134.458C29.3592,134.16 28.5772,133.943 27.7842,133.778C27.5682,133.733 27.3592,133.683 27.1412,133.649C26.3972,133.53 25.6472,133.447 24.8942,133.447C24.7372,133.447 24.5882,133.476 24.4322,133.482C24.2772,133.488 24.1262,133.505 23.9712,133.516C23.0552,133.574 22.1642,133.708 21.3022,133.929C21.2332,133.947 21.1632,133.958 21.0952,133.975C20.1052,134.246 19.1632,134.619 18.2692,135.082C18.2562,135.088 18.2402,135.089 18.2272,135.097C18.1882,135.118 18.1552,135.145 18.1172,135.166C17.7442,135.364 17.3632,135.55 17.0112,135.779L17.0112,135.053ZM221.058,12.7989C222.243,12.1159 223.592,11.7539 224.959,11.7539C226.327,11.7539 227.677,12.1159 228.861,12.7969L345.017,79.7759L224.997,149.083L104.981,79.7839L221.058,12.7989ZM432.501,122.5L232.201,7.00395C227.802,4.46895 222.115,4.46695 217.716,7.00595L17.5512,122.479C13.0772,125.071 10.2982,129.888 10.2982,135.07L10.3212,138.948L10.2462,366.295C10.2442,371.46 13.0212,376.272 17.4952,378.853L217.808,494.509C220.008,495.779 222.514,496.451 225.055,496.451C227.597,496.451 230.103,495.779 232.303,494.509L432.507,378.919C436.976,376.337 439.754,371.527 439.754,366.364L439.754,135.057C439.754,129.89 436.974,125.078 432.501,122.5" style="fill:white;fill-rule:nonzero;"/>
            <path d="M87.4884,550.18L78.7144,532.017L72.2504,532.017L72.2504,565.608L78.8084,565.608L78.8084,546.027L85.2714,558.766L89.7074,558.766L96.1224,546.027L96.1224,565.608L102.682,565.608L102.682,532.017L96.2164,532.017L87.4884,550.18Z" style="fill:white;fill-rule:nonzero;"/>
            <rect x="112.895" y="532.017" width="6.558" height="33.591" style="fill:white;fill-rule:nonzero;"/>
            <path d="M148.806,552.585L135.501,532.017L129.652,532.017L129.652,565.608L136.209,565.608L136.209,544.99L149.515,565.608L155.364,565.608L155.364,532.017L148.806,532.017L148.806,552.585Z" style="fill:white;fill-rule:nonzero;"/>
            <path d="M163.074,537.867L171.85,537.867L171.85,565.607L178.408,565.607L178.408,537.867L187.182,537.867L187.182,532.016L163.074,532.016L163.074,537.867Z" style="fill:white;fill-rule:nonzero;"/>
            <path d="M224.619,557.682C223.488,559.05 221.978,559.756 219.713,559.756L214.76,559.756L214.76,537.867L219.713,537.867C221.978,537.867 223.488,538.574 224.619,539.941C225.846,541.451 226.035,543.576 226.035,548.67C226.035,553.764 225.846,556.172 224.619,557.682M229.196,535.224C226.98,533.007 223.818,532.016 220.326,532.016L208.202,532.016L208.202,565.607L220.326,565.607C223.818,565.607 226.98,564.616 229.196,562.4C232.971,558.623 232.594,553.717 232.594,548.67C232.594,543.622 232.971,538.996 229.196,535.224" style="fill:white;fill-rule:nonzero;"/>
            <path d="M241.672,565.608L263.8,565.608L263.8,559.757L248.23,559.757L248.23,551.594L261.487,551.594L261.487,545.747L248.23,545.747L248.23,537.868L263.8,537.868L263.8,532.017L241.672,532.017L241.672,565.608Z" style="fill:white;fill-rule:nonzero;"/>
            <path d="M285.282,545.981L281.319,545.416C279.95,545.228 278.867,544.706 278.206,544.095C277.497,543.434 277.215,542.535 277.215,541.686C277.215,539.377 278.913,537.441 282.405,537.441C284.621,537.441 287.168,537.725 289.293,539.754L293.444,535.647C290.566,532.866 287.216,531.732 282.593,531.732C275.326,531.732 270.891,535.931 270.891,541.924C270.891,544.756 271.694,546.926 273.298,548.528C274.808,549.992 276.93,550.887 279.81,551.313L283.866,551.878C285.424,552.116 286.179,552.446 286.84,553.057C287.547,553.718 287.877,554.709 287.877,555.889C287.877,558.578 285.801,560.041 281.932,560.041C278.818,560.041 275.941,559.334 273.817,557.21L269.572,561.455C272.874,564.805 276.742,565.892 281.838,565.892C288.868,565.892 294.293,562.212 294.293,555.7C294.293,552.727 293.492,550.276 291.697,548.574C290.284,547.256 288.35,546.407 285.282,545.981" style="fill:white;fill-rule:nonzero;"/>
            <rect x="302.847" y="532.017" width="6.558" height="33.591" style="fill:white;fill-rule:nonzero;"/>
            <path d="M330.836,552.396L337.015,552.396L337.015,553.671C337.015,555.512 336.497,557.021 335.505,558.155C334.326,559.426 332.77,560.041 330.836,560.041C329.042,560.041 327.626,559.472 326.637,558.293C325.316,556.737 325.031,555.416 325.031,548.812C325.031,542.158 325.41,540.933 326.637,539.377C327.674,538.197 329.09,537.583 330.836,537.583C334.09,537.583 336.072,539.235 336.875,542.488L343.479,542.488C342.584,536.638 338.479,531.732 330.836,531.732C327.25,531.732 324.23,532.957 321.777,535.412C320.314,536.876 319.417,538.528 319.04,540.46C318.662,542.346 318.474,545.132 318.474,548.812C318.474,552.492 318.662,555.273 319.04,557.163C319.417,559.05 320.314,560.748 321.777,562.211C324.23,564.662 327.25,565.892 330.836,565.892C334.61,565.892 337.724,564.712 340.319,562.069C342.63,559.614 343.527,556.737 343.527,551.831L343.527,546.926L330.836,546.926L330.836,552.396Z" style="fill:white;fill-rule:nonzero;"/>
            <path d="M371.192,552.585L357.887,532.017L352.038,532.017L352.038,565.608L358.595,565.608L358.595,544.99L371.899,565.608L377.75,565.608L377.75,532.017L371.192,532.017L371.192,552.585Z" style="fill:white;fill-rule:nonzero;"/>
        </g>
    </g>
</svg>
