<svg viewBox="0 0 71 71" xmlns="http://www.w3.org/2000/svg" fill-rule="evenodd" clip-rule="evenodd" stroke-linejoin="round" stroke-miterlimit="1.414"><path d="M63.925 3.406H6.94c-1.952 0-3.534 1.582-3.534 3.535v56.985c0 1.952 1.582 3.535 3.535 3.535h30.68V42.655H29.27v-9.667h8.347v-7.13c0-8.273 5.052-12.778 12.433-12.778 3.535 0 6.574.263 7.46.38v8.647l-5.12.003c-4.013 0-4.79 1.907-4.79 4.706v6.172h9.572l-1.246 9.667H47.6V67.46h16.323c1.953 0 3.535-1.583 3.535-3.535V6.94c0-1.952-1.582-3.534-3.535-3.534" fill="#fff"/></svg>