<svg viewBox="0 0 71 71" xmlns="http://www.w3.org/2000/svg" fill-rule="evenodd" clip-rule="evenodd" stroke-linejoin="round" stroke-miterlimit="1.414"><path d="M57.988 57.987h-9.494V43.122c0-3.545-.065-8.105-4.938-8.105-4.943 0-5.7 3.86-5.7 7.848v15.122H28.36V27.42h9.112v4.176h.128c1.268-2.403 4.367-4.937 8.99-4.937 9.62 0 11.396 6.33 11.396 14.56v16.767zM17.655 23.24c-3.045 0-5.51-2.468-5.51-5.51 0-3.037 2.465-5.506 5.51-5.506 3.037 0 5.506 2.47 5.506 5.507 0 3.042-2.468 5.51-5.505 5.51zm4.75 34.747H12.9V27.42h9.502v30.567zm40.314-54.58H8.132c-2.608 0-4.727 2.066-4.727 4.614v54.817c0 2.55 2.12 4.62 4.727 4.62H62.72c2.612 0 4.74-2.07 4.74-4.62V8.02c0-2.547-2.128-4.614-4.74-4.614z" fill="#fff"/></svg>