<svg viewBox="0 0 71 71" xmlns="http://www.w3.org/2000/svg" fill-rule="evenodd" clip-rule="evenodd" stroke-linejoin="round" stroke-miterlimit="1.414"><path d="M60.072 67.46H10.795c-4.08 0-7.39-3.31-7.39-7.393V10.795c0-4.08 3.31-7.39 7.39-7.39h49.277c4.08 0 7.39 3.31 7.39 7.39v49.272c0 4.084-3.31 7.393-7.39 7.393m-24.64-44.346c-6.803 0-12.317 5.514-12.317 12.318 0 6.803 5.514 12.32 12.318 12.32 6.804 0 12.32-5.517 12.32-12.32 0-6.804-5.516-12.318-12.32-12.318m24.64-9.856c0-1.36-1.105-2.463-2.467-2.463h-7.39c-1.36 0-2.463 1.104-2.463 2.463v7.393c0 1.36 1.102 2.464 2.463 2.464h7.39c1.362 0 2.466-1.103 2.466-2.463V13.26zm0 17.245h-5.578c.407 1.577.647 3.225.647 4.93 0 10.886-8.824 19.71-19.71 19.71-10.883 0-19.707-8.824-19.707-19.71 0-1.705.24-3.353.647-4.93h-5.577v27.102c0 1.36 1.104 2.462 2.466 2.462h44.346c1.362 0 2.466-1.103 2.466-2.462V30.503z" fill="#fff"/></svg>