<svg width="490" height="550" xmlns="http://www.w3.org/2000/svg" fill-rule="evenodd" clip-rule="evenodd" stroke-linejoin="round" stroke-miterlimit="1.414"><path d="M471.628 401.917c0 1.605-.563 3.14-1.546 4.354-.065-.398-.15-.79-.24-1.18l-.047-.22c-.05-.233-.1-.465-.17-.718-.02-.082-.04-.163-.064-.25-.06-.21-.14-.41-.218-.612l-.164-.446c-.097-.277-.194-.554-.308-.818-.128-.3-.276-.59-.425-.88l-.206-.4c-.117-.237-.237-.473-.368-.697-.22-.377-.472-.734-.723-1.09l-.19-.275c-.103-.156-.208-.31-.317-.452-.396-.514-.847-1.03-1.358-1.55l-.092-.1c-1.12-1.122-2.364-2.082-3.702-2.854l-71.97-41.568v-154.56l71.826-41.48c.417-.24.887-.432 1.48-.61l.102-.032c.07-.022.14-.044.222-.064.452-.112.928-.175 1.41-.187.078-.002.157-.008.272-.018.265.005.57.048.842.087l.115.016c.108.015.216.03.313.05.277.06.57.144.893.26.138.05.274.103.406.16.295.126.637.28 1.005.504.262.164.534.386.757.57.067.06.135.115.202.17.05.04.102.08.182.16.29.277.53.54.737.812.058.076.106.17.16.26.057.096.114.193.167.276l.115.183c.088.137.178.272.252.426.053.115.09.246.134.376l.19.54c.05.138.106.275.14.423.125.54.184 1.055.184 1.575v239.857zm-12.134 7.556l-.062.55c-.018.19-.032.38-.07.548-.078.33-.21.67-.387 1.085l-.103.26c-.028.074-.055.15-.08.203-.124.235-.317.495-.52.77l-.064.086c-.066.09-.127.182-.185.275l-.058.087c-.04.05-.08.1-.09.124-.38.426-.79.792-1.224 1.087l-.487.336-124.97 72.196c-.092-.706-.23-1.403-.407-2.09-1.18-4.552-4.097-8.384-8.223-10.793l-66.692-38.51 128.34-74.118 71.802 41.41.154.096c.485.284.923.61 1.33 1l.1.1c.392.393.73.826 1.01 1.296l.1.204c.26.475.463.963.595 1.435.023.08.028.166.038.25.017.128.034.256.067.445.07.38.136.737.142 1.046.004.174-.023.382-.053.623M319.682 492.71c-.354.548-.675 1.005-1.133 1.5-.08.09-.17.17-.268.254l-69.72 40.257c-.667.365-1.222.592-1.84.746-1.16.322-2.225.326-3.546-.038-.118-.03-.233-.075-.35-.117l-.214-.074c-.107-.04-.207-.085-.248-.1-.285-.14-.574-.29-.77-.397l-207.97-120.1c-.312-.212-.556-.4-.814-.63-.118-.1-.236-.198-.296-.253-1.235-1.276-1.917-2.964-1.918-4.75 0-2.487 1.284-4.715 3.436-5.96l71.87-41.558 211.09 121.96c3.92 2.29 4.054 6.89 2.69 9.26m-299.82-86.516c-.948-1.204-1.49-2.707-1.49-4.277V162.06c0-1.93.726-3.594 2.192-4.98.358-.36.813-.685 1.416-1.016.117-.063.236-.12.38-.188.272-.132.587-.252.962-.365l.197-.06c.108-.034.215-.07.316-.093.4-.087.813-.138 1.228-.15.08-.003.16-.01.247-.02.482.005.984.076 1.53.213.043.01.085.027.13.043l.22.072c.597.186 1.035.365 1.41.58l71.88 41.507V352.16l-72.69 41.906c-4.31 2.746-7.163 7.166-7.93 12.128m1.858-264.24l84.128-48.547 128.386 74.133-.034.02 82.798 47.81c1.934 1.128 3.177 3.047 3.41 5.262.008.064.017.126.03.2.03.375.014.797-.044 1.314l-.014.126c-.012.104-.022.207-.043.32-.063.36-.164.73-.3 1.112-.066.174-.137.345-.216.515-.158.344-.323.644-.493.902-.127.19-.276.364-.424.544-.217.262-.427.513-.653.715-.365.332-.763.672-1.192.92l-68.612 39.393c-2.042 1.17-4.836 1.17-6.87-.008l-135.443-78.213-71.897-41.532c-.62-.392-1.237-.69-2.256-1.143-.136-.06-.278-.1-.444-.14-.852-.33-1.76-.594-2.783-.807l-.195-.04c-.195-.044-.39-.085-.582-.115-1.22-.195-2.224-.317-3.194-.213l-.1.01c-.14.003-.274.015-.41.027l-.154.01c-1.127.073-2.218.243-3.267.51-.072.015-.144.03-.23.053-.675.184-1.348.414-2.002.68.52-1.586 1.613-2.962 3.1-3.82m219.8-126.837c2.09-1.205 4.79-1.204 6.876-.002l125.022 72.09-128.42 74.158-128.415-74.15 124.937-72.096zm14.233 259.758l66.653-38.267c.74-.426 1.466-.928 2.27-1.573l54.113-31.245v142.174l-123.035-71.09zm-144.537 71.148V203.8l123.062 71.062-123.062 71.16zm130.342-62.975c2.093-1.21 4.797-1.21 6.888 0L373.55 355.33l-128.454 74.187-128.472-74.228 124.93-72.243zM468.26 141.935c1.513.878 2.62 2.282 3.135 3.892-.238-.094-.482-.184-.733-.27-3.182-1.187-6.558-1.372-9.803-.588-.96.208-1.893.495-2.73.832-.147.037-.292.08-.474.158-.62.278-1.264.58-1.706.87l-50.796 29.344-74.067 42.764c-.715-5.384-3.833-10.08-8.647-12.858l-66.713-38.52 128.39-74.142 84.143 48.517zm5.467-9.277L253.754 5.818c-2.63-1.515-5.67-2.316-8.8-2.316-3.13 0-6.174.8-8.8 2.32L16.326 132.636c-5.435 3.147-8.81 9.007-8.81 15.303l.026 4.248-.083 249.675c-.003 6.276 3.372 12.123 8.808 15.26L236.255 544.14c2.674 1.542 5.72 2.358 8.806 2.358 3.087 0 6.132-.816 8.807-2.36l219.867-126.943c5.432-3.137 8.807-8.982 8.807-15.254V147.915c0-6.277-3.377-12.125-8.813-15.256" fill="#fff"/></svg>