<svg width="810" height="180" xmlns="http://www.w3.org/2000/svg" fill-rule="evenodd" clip-rule="evenodd" stroke-linejoin="round" stroke-miterlimit="1.414"><g fill="#fff"><path d="M147.92 129.54c0 .5-.175.978-.48 1.356-.022-.124-.048-.246-.076-.368l-.014-.068c-.016-.073-.033-.145-.053-.224l-.02-.078c-.02-.065-.044-.127-.068-.19l-.053-.14c-.03-.086-.06-.172-.096-.254-.038-.094-.084-.184-.13-.274l-.066-.125c-.036-.074-.072-.147-.113-.217-.07-.117-.147-.228-.225-.34l-.06-.085c-.03-.05-.064-.097-.097-.14-.124-.16-.265-.32-.423-.483l-.03-.032c-.348-.35-.736-.648-1.152-.89l-22.423-12.95V65.89l22.378-12.924c.13-.074.276-.135.46-.19l.032-.01c.023-.007.044-.014.07-.02.14-.035.29-.054.44-.058.023 0 .048-.002.084-.005.082.002.178.016.262.028l.036.005.098.015c.086.02.176.046.277.082.043.015.085.032.126.05.093.04.2.087.315.157.08.05.166.12.235.177.02.02.042.036.062.053.017.013.033.025.058.05.09.086.165.168.23.253.017.023.033.052.05.08l.052.087.034.057c.028.042.056.084.08.132.016.036.028.077.04.117l.06.17c.015.042.032.084.044.13.037.17.057.33.057.49v74.727zm-3.78 2.354l-.02.17c-.005.06-.008.12-.02.172-.025.103-.066.208-.122.338l-.03.08c-.01.024-.018.047-.026.064-.04.073-.1.154-.162.24l-.02.027-.06.085-.017.028c-.013.015-.025.03-.027.038-.118.133-.247.247-.38.34l-.154.103-38.933 22.492c-.03-.22-.073-.437-.127-.65-.37-1.42-1.277-2.613-2.562-3.363l-20.778-12 39.984-23.09 22.37 12.9.047.03c.152.09.288.19.416.312l.03.032c.122.122.226.257.314.404l.03.063c.083.15.144.3.187.448.007.025.01.05.01.078.006.04.012.08.023.138.022.118.042.23.043.326 0 .054-.006.12-.015.194m-43.557 25.932c-.11.17-.21.313-.353.467-.024.028-.053.053-.083.08l-21.722 12.54c-.207.115-.38.185-.572.233-.36.1-.694.102-1.105-.012-.037-.01-.073-.023-.11-.036l-.066-.024c-.034-.012-.065-.026-.078-.03-.088-.045-.178-.09-.24-.124l-64.79-37.417c-.098-.065-.175-.124-.255-.196-.038-.03-.075-.06-.093-.078-.385-.4-.598-.925-.598-1.48 0-.776.4-1.47 1.07-1.857l22.39-12.948 65.765 37.996c1.22.714 1.263 2.148.838 2.886M7.176 130.872c-.296-.375-.465-.843-.465-1.332l.002-74.726c0-.6.226-1.12.683-1.552.112-.112.253-.213.44-.316.037-.02.074-.038.12-.06.084-.04.18-.077.3-.112l.06-.02.1-.028c.124-.027.252-.043.382-.047l.076-.007c.15 0 .307.023.477.066.013.003.027.008.04.013l.07.022c.184.058.32.114.438.18L32.29 65.888l.002 48.15-22.647 13.057c-1.34.855-2.23 2.232-2.47 3.778m.58-82.322l26.21-15.124L73.96 56.52l-.01.007 25.796 14.895c.603.352.99.95 1.063 1.64 0 .02.004.04.007.062.01.117.005.248-.012.41l-.006.04-.013.1c-.02.11-.05.225-.095.345-.02.053-.042.106-.067.16-.048.107-.1.2-.153.28-.04.06-.085.114-.132.17-.067.082-.133.16-.203.223-.114.103-.24.21-.37.286L78.39 87.41c-.636.365-1.507.365-2.14-.003L34.052 63.042l-22.4-12.94c-.193-.122-.385-.214-.703-.356-.04-.018-.085-.03-.137-.044-.266-.102-.55-.184-.868-.25l-.06-.013c-.06-.014-.12-.026-.18-.036-.382-.06-.694-.1-.996-.066l-.033.003c-.043.002-.085.005-.127.01l-.05.003c-.35.022-.69.075-1.016.158-.022.006-.045.01-.072.018-.21.058-.42.13-.623.212.16-.495.5-.923.963-1.19M76.23 9.035c.652-.376 1.493-.376 2.144 0l38.95 22.458-40.01 23.104-40.005-23.1 38.92-22.462zm4.435 80.926l20.765-11.92c.232-.134.458-.29.708-.49l16.858-9.736v44.294L80.666 89.96zm-45.03 22.166V67.818l38.34 22.14-38.34 22.168zm40.608-19.62c.65-.376 1.495-.376 2.145 0l38.976 22.52-40.019 23.113-40.023-23.127 38.92-22.506zm70.628-43.962c.473.274.818.71.977 1.212-.073-.028-.15-.056-.227-.083-.99-.37-2.043-.428-3.054-.184-.3.065-.59.154-.85.26-.047.01-.09.024-.15.048-.19.087-.393.18-.53.27l-15.824 9.143-23.076 13.324c-.223-1.677-1.194-3.14-2.694-4.006l-20.783-12 39.997-23.1 26.214 15.116zm1.705-2.89L80.045 6.138c-.82-.472-1.77-.722-2.743-.722-.976 0-1.924.25-2.742.722L6.074 45.648c-1.693.98-2.744 2.806-2.744 4.767l.007 1.323-.026 77.785c0 1.955 1.052 3.777 2.746 4.754l68.535 39.57c.834.482 1.784.736 2.745.736.962 0 1.91-.254 2.744-.735l68.497-39.548c1.692-.978 2.744-2.8 2.744-4.753v-79.14c0-1.956-1.05-3.777-2.745-4.753"/><path d="M227.51 98.965l-21.435-45.65h-11.128v73.37h11.128V77.633l17.312 35.76h8.244l16.9-35.76v49.052h11.13v-73.37h-11.13l-21.02 45.65zM281.302 53.315h11.128v73.37h-11.128zM358.276 104.84l-33.902-51.524h-10.2v73.368H325.3V75.058l33.903 51.626h10.202V53.316h-11.13v51.523zM384.66 63.31h20.195v63.374h11.13V63.31h20.196v-9.994h-51.52v9.995zM504.962 116.07c-4.225 4.43-9.892 5.668-15.766 5.668h-17.723V58.26h17.723c5.874 0 11.54 1.237 15.766 5.67 5.462 5.77 5.462 16.383 5.462 26.07 0 9.686 0 20.3-5.462 26.07m-14.426-62.755h-24.628v73.37h24.628c7.728 0 13.91-2.268 18.342-6.7 7.007-7.007 7.11-19.062 7.11-29.985 0-10.924-.103-22.98-7.11-29.987-4.43-4.43-10.614-6.698-18.342-6.698"/><path d="M535.775 126.684h44.517v-4.946H541.34V92.164h33.18v-4.947h-33.18V58.262h38.952v-4.947h-44.517v73.37zM634.186 92.885c-3.4-2.885-6.285-4.02-13.086-5.05l-8.553-1.34c-4.122-.618-7.934-2.06-10.51-4.224-2.577-2.162-3.71-5.46-3.71-9.685 0-9.377 6.286-15.148 17.002-15.148 8.655 0 13.498 2.68 17.826 6.8l3.606-3.605c-6.285-5.462-12.056-7.935-21.124-7.935-14.117 0-22.773 7.832-22.773 20.094 0 5.875 1.958 10.408 5.77 13.603 3.195 2.782 7.523 4.43 13.087 5.256l8.553 1.338c5.874.927 8.038 1.65 10.614 3.916 2.78 2.37 4.017 5.873 4.017 10.304 0 9.584-7.212 15.148-18.857 15.148-8.758 0-14.22-2.06-20.815-8.656l-3.916 3.916c6.698 6.698 13.602 9.687 24.42 9.687 15.355 0 24.732-7.935 24.732-20.3 0-5.977-2.37-10.718-6.286-14.118"/><path d="M657.89 53.315h5.563v73.37h-5.564zM708.38 94.12h19.682v6.596c0 6.286-1.237 10.51-4.432 14.53-3.812 4.637-9.478 7.11-15.25 7.11-5.358 0-10.098-1.855-13.91-5.667-5.255-5.256-5.668-11.234-5.668-26.69 0-15.457.413-21.433 5.668-26.69 3.812-3.812 8.552-5.667 13.91-5.667 9.892 0 17.313 6.286 19.476 16.487h5.564c-2.164-12.88-12.262-21.433-25.04-21.433-7.315 0-13.5 2.68-17.826 7.007-6.8 6.8-7.317 12.47-7.317 30.296s.516 23.494 7.317 30.295c4.327 4.33 10.51 7.007 17.826 7.007 7.42 0 14.53-3.194 19.27-8.45 4.327-4.842 5.976-9.995 5.976-17.723V89.174H708.38v4.946zM801.123 53.316v63.58l-42.35-63.58h-5.566v73.37h5.566V62.9l42.35 63.785h5.566v-73.37h-5.567z"/></g></svg>